<svg viewBox="0 0 819 1143" fill="none" xmlns="http://www.w3.org/2000/svg">
<g id="fignu3">
<g id="fignu3-shadow"  filter="url(#filter0_f_1222_19645)">
<ellipse class="fignu3-shadow" cx="397.5" cy="1034" rx="317.5" ry="30" fill="#464646" fill-opacity="0.4"/>
</g>
<g id="Group 549">
<g id="fignu3-card-verse" class="fignu3-card-verse">
<rect id="Rectangle 1018" width="418.937" height="265.752" rx="14.5061" transform="matrix(0.83147 0.55557 -0.285354 0.958422 145.833 219)" fill="url(#paint0_linear_1222_19645)"/>
<rect id="Rectangle 1019" width="418.937" height="62.2857" transform="matrix(0.83147 0.55557 -0.285354 0.958422 140.37 237.352)" fill="#D6D6D6"/>
<rect id="Rectangle 1020" width="91.3523" height="60.2095" rx="30.1047" transform="matrix(0.83147 0.55557 -0.285354 0.958422 119.992 352.42)" fill="url(#paint1_linear_1222_19645)"/>
<text id="5032 9334 3764 9846" transform="matrix(0.83147 0.55557 -0.285354 0.958422 98.7988 423.603)" fill="#FEFBFF" xml:space="preserve" style="white-space: pre" font-family="Sora" font-size="20.8888" letter-spacing="0.03em"><tspan x="0" y="21.6022">5032 9334 3764 9846</tspan></text>
<text id="gold" transform="matrix(0.83147 0.55557 -0.285354 0.958422 150.55 327.498)" fill="#F7F2FA" xml:space="preserve" style="white-space: pre" font-family="Sora" font-size="20.8888" font-weight="600" letter-spacing="0em"><tspan x="0" y="21.6022">gold</tspan></text>
<text id="02/17" transform="matrix(0.83147 0.55557 -0.285354 0.958422 109.293 469.953)" fill="#FEFBFF" xml:space="preserve" style="white-space: pre" font-family="Sora" font-size="10.4444" letter-spacing="0em"><tspan x="0" y="11.0511">02/17</tspan></text>
<text id="02/20" transform="matrix(0.83147 0.55557 -0.285354 0.958422 158.504 502.835)" fill="#FEFBFF" xml:space="preserve" style="white-space: pre" font-family="Sora" font-size="10.4444" letter-spacing="0em"><tspan x="0" y="11.0511">02/20</tspan></text>
<text id="123" transform="matrix(0.83147 0.55557 -0.285354 0.958422 213.986 539.907)" fill="#FEFBFF" xml:space="preserve" style="white-space: pre" font-family="Sora" font-size="10.4444" letter-spacing="0em"><tspan x="0" y="11.0511">123</tspan></text>
<g id="Group 346">
<text id="cirrus." transform="matrix(0.83147 0.55557 -0.285354 0.958422 377.179 654.283)" fill="#FBF9FC" xml:space="preserve" style="white-space: pre" font-family="Sora" font-size="7.54318" font-weight="600" letter-spacing="0em"><tspan x="0" y="8.06468">cirrus.</tspan></text>
<circle id="Ellipse 7" r="17.9876" transform="matrix(0.83147 0.55557 -0.285354 0.958422 383.442 637.132)" fill="#0167B2"/>
<circle id="Ellipse 8" r="17.9876" transform="matrix(0.83147 0.55557 -0.285354 0.958422 401.775 649.382)" fill="#02A1E2"/>
<path id="Intersect" fill-rule="evenodd" clip-rule="evenodd" d="M388.507 656.785C392.993 656.008 396.753 652.591 398.409 647.029C400.065 641.468 399.25 634.994 396.638 629.474C392.152 630.251 388.392 633.669 386.736 639.23C385.081 644.792 385.895 651.265 388.507 656.785Z" fill="#207CBD"/>
</g>
<text id="member since" transform="matrix(0.83147 0.55557 -0.285354 0.958422 89.498 458.727)" fill="#FEFBFF" xml:space="preserve" style="white-space: pre" font-family="Source Sans Pro" font-size="3.48147" letter-spacing="0.1em"><tspan x="0" y="3.73766">MEMBER&#10;</tspan><tspan x="0" y="8.73766">SINCE</tspan></text>
<text id="valid thru" transform="matrix(0.83147 0.55557 -0.285354 0.958422 143.533 494.832)" fill="#FEFBFF" xml:space="preserve" style="white-space: pre" font-family="Source Sans Pro" font-size="3.48147" letter-spacing="0.1em"><tspan x="0" y="3.73766">VALID&#10;</tspan><tspan x="0" y="8.73766">THRU</tspan></text>
<text id="security code" transform="matrix(0.83147 0.55557 -0.285354 0.958422 192.744 527.714)" fill="#FEFBFF" xml:space="preserve" style="white-space: pre" font-family="Source Sans Pro" font-size="3.48147" letter-spacing="0.1em"><tspan x="0" y="3.73766">SECURITY&#10;</tspan><tspan x="0" y="8.73766">CODE</tspan></text>
<path id="Vector" d="M270.056 427.352C269.968 427.647 269.782 427.862 269.539 427.95C269.296 428.038 269.016 427.991 268.76 427.82L262.971 423.951L260.379 424.886L263.028 415.989C263.116 415.694 263.301 415.479 263.545 415.391C263.788 415.303 264.068 415.35 264.324 415.521L271.078 420.034C271.334 420.205 271.545 420.486 271.663 420.816C271.782 421.145 271.8 421.496 271.712 421.791L270.056 427.352Z" stroke="#FEFBFF" stroke-width="0.580245" stroke-linecap="round" stroke-linejoin="round"/>
<g id="Group 347">
<path id="Vector_2" d="M257.766 451.145C260.431 452.925 263.332 451.879 264.247 448.807C265.161 445.736 263.743 441.803 261.078 440.022C258.413 438.242 255.512 439.289 254.598 442.36C253.683 445.431 255.102 449.365 257.766 451.145Z" stroke="#FEFBFF" stroke-width="0.580245" stroke-linecap="round" stroke-linejoin="round"/>
<path id="Vector_3" d="M258.515 442.977C258.739 442.681 259.056 442.518 259.41 442.515C259.764 442.512 260.133 442.671 260.45 442.962C260.767 443.254 261.012 443.66 261.142 444.109C261.273 444.557 261.28 445.019 261.162 445.413C260.831 446.525 259.218 446.114 259.218 446.114" stroke="#FEFBFF" stroke-width="0.580245" stroke-linecap="round" stroke-linejoin="round"/>
<path id="Vector_4" d="M258.594 448.364L258.6 448.368" stroke="#FEFBFF" stroke-width="0.580245" stroke-linecap="round" stroke-linejoin="round"/>
</g>
<text id="Est&#195;&#161; com d&#195;&#186;vidas? Nosso app pode te ajudar." transform="matrix(0.83147 0.55557 -0.285354 0.958422 279.309 421.533)" fill="#FEFBFF" xml:space="preserve" style="white-space: pre" font-family="Source Sans Pro" font-size="5.2222" letter-spacing="0em"><tspan x="0" y="5.85649">Est&#xe1; com d&#xfa;vidas?&#10;</tspan><tspan x="0" y="13.8565">Nosso app pode te ajudar.</tspan></text>
<text id="Fale com a gente: 0800 591 2117" transform="matrix(0.83147 0.55557 -0.285354 0.958422 272.354 444.89)" fill="#FEFBFF" xml:space="preserve" style="white-space: pre" font-family="Source Sans Pro" font-size="5.2222" letter-spacing="0em"><tspan x="0" y="5.85649">Fale com a gente:&#10;</tspan><tspan x="0" y="13.8565">0800 591 2117</tspan></text>
<circle id="Ellipse 170" r="18.2777" transform="matrix(0.83147 0.55557 -0.285354 0.958422 160.269 414.336)" fill="#D9D9D9"/>
<path id="Subtract" fill-rule="evenodd" clip-rule="evenodd" d="M152.317 374.018L145.024 369.145C131.199 359.908 116.146 365.338 111.402 381.273C106.658 397.208 114.018 417.614 127.843 426.851L135.228 431.786C157.384 420.037 162.395 408.241 152.317 374.018Z" fill="url(#paint2_linear_1222_19645)"/>
</g>
<g id="fignu3-card-front" class="fignu3-card-front">
<rect id="Rectangle 1021" width="418.216" height="265.295" rx="14.4812" transform="matrix(0.75184 -0.659346 0.475931 0.879483 265 660.749)" fill="url(#paint3_linear_1222_19645)"/>
<text id="Junior b santos" transform="matrix(0.75184 -0.659346 0.475931 0.879483 454.426 748.533)" fill="#FEFBFF" xml:space="preserve" style="white-space: pre" font-family="Sora" font-size="13.9019" font-weight="600" letter-spacing="0.1em"><tspan x="0" y="14.2267">JUNIOR B SANTOS</tspan></text>
<circle id="Ellipse 171" r="26.5008" transform="matrix(0.75184 -0.659346 0.475931 0.879483 542.259 482.576)" fill="#E71924"/>
<circle id="Ellipse 172" r="26.5008" transform="matrix(0.75184 -0.659346 0.475931 0.879483 566.541 461.281)" fill="#F99F19"/>
<path id="Intersect_2" fill-rule="evenodd" clip-rule="evenodd" d="M564.351 490.318C566.779 481.906 566.206 472.538 562.133 465.011C558.06 457.485 551.388 453.466 544.349 453.356C541.922 461.768 542.494 471.136 546.567 478.662C550.641 486.189 557.313 490.208 564.351 490.318Z" fill="#F26520"/>
<g id="Group 348">
<rect id="Rectangle 344" x="0.762584" y="0.13673" width="56.7283" height="40.1653" rx="3.51964" transform="matrix(0.75184 -0.659346 0.475931 0.879483 342.445 709.988)" fill="url(#paint4_linear_1222_19645)" stroke="#211F21" stroke-width="1.24223"/>
<path id="Vector 9" d="M349.447 720.941L362.211 709.747" stroke="#211F21" stroke-width="1.15849" stroke-linecap="round"/>
<path id="Vector 10" d="M355.556 732.23L368.04 721.282" stroke="#211F21" stroke-width="1.15849" stroke-linecap="round"/>
<path id="Vector 11" d="M385.442 706.02L397.895 695.099" stroke="#211F21" stroke-width="1.15849" stroke-linecap="round"/>
<path id="Vector 12" d="M379.344 695.259L391.983 684.174" stroke="#211F21" stroke-width="1.15849" stroke-linecap="round"/>
<circle id="Ellipse 12" r="1.24223" transform="matrix(0.75184 -0.659346 0.475931 0.879483 367.266 696.185)" fill="#211F21"/>
<g id="Vector 13">
<path d="M422.366 677.358C421.013 668.603 419.215 664.568 412.943 659.946C412.278 659.456 412.221 658.611 412.466 658.217C412.712 657.822 413.259 657.521 413.95 657.989C420.964 662.742 423.025 667.049 424.353 676.79C424.436 677.791 423.903 678.394 423.404 678.428C422.819 678.468 422.48 678.098 422.366 677.358Z" fill="#FEFBFF"/>
<path d="M409.97 663.359C409.757 663.814 409.932 664.68 410.701 665.135C415.554 668.395 417.045 671.386 417.894 678.427C417.963 679.152 418.417 679.621 418.895 679.429C419.461 679.201 419.659 678.456 419.591 677.745C418.86 670.112 417.176 666.835 411.609 662.996C411.095 662.641 410.289 662.677 409.97 663.359Z" fill="#FEFBFF"/>
<path d="M408.138 668.457C407.769 669.048 408.014 669.725 408.615 670.186C411.74 672.584 412.992 674.366 413.443 679.109C413.492 679.961 413.748 680.686 414.387 680.429C415.026 680.172 415.23 679.514 415.181 678.927C414.711 673.048 413.005 671.017 409.269 668.002C408.95 667.744 408.506 667.865 408.138 668.457Z" fill="#FEFBFF"/>
<path d="M405.657 672.78C405.387 673.554 405.62 674.164 406.487 674.737C408.313 675.965 408.879 677.059 409.147 679.654C409.248 680.814 409.666 681.884 410.387 681.52C411.108 681.156 411.245 680.655 411.041 679.336C410.389 675.965 409.649 674.385 407.297 672.416C406.712 671.883 406.083 671.87 405.657 672.78Z" fill="#FEFBFF"/>
</g>
<path id="Vector 14" d="M375.298 692.363C371.528 688.652 368.03 688.265 364.45 691.405C360.092 695.227 360.961 700.189 362.112 709.565C366.339 712.733 367.715 715.229 368.32 721.036C376.178 727.953 379.805 729.025 383.328 725.864C387.997 721.769 386.821 715.974 385.287 706.157C381.63 703.072 380.212 700.843 379.157 695.477" stroke="#211F21" stroke-width="1.15849" stroke-linecap="round"/>
</g>
</g>
</g>
</g>
<defs>
<filter id="filter0_f_1222_19645" x="13" y="937" width="769" height="194" filterUnits="userSpaceOnUse" color-interpolation-filters="sRGB">
<feFlood flood-opacity="0" result="BackgroundImageFix"/>
<feBlend mode="normal" in="SourceGraphic" in2="BackgroundImageFix" result="shape"/>
<feGaussianBlur stdDeviation="33.5" result="effect1_foregroundBlur_1222_19645"/>
</filter>
<linearGradient id="paint0_linear_1222_19645" x1="354.002" y1="35.8765" x2="205.462" y2="305.786" gradientUnits="userSpaceOnUse">
<stop stop-color="#A950C4"/>
<stop offset="1" stop-color="#82269E"/>
</linearGradient>
<linearGradient id="paint1_linear_1222_19645" x1="48.1603" y1="60.3455" x2="73.401" y2="3.48147" gradientUnits="userSpaceOnUse">
<stop stop-color="#F6F3F7"/>
<stop offset="1" stop-color="#D6D6D6"/>
</linearGradient>
<linearGradient id="paint2_linear_1222_19645" x1="153.66" y1="378.25" x2="111.793" y2="403.971" gradientUnits="userSpaceOnUse">
<stop stop-color="#F5F5F5"/>
<stop offset="1" stop-color="#D6D6D6"/>
</linearGradient>
<linearGradient id="paint3_linear_1222_19645" x1="353.392" y1="35.8148" x2="205.109" y2="305.26" gradientUnits="userSpaceOnUse">
<stop stop-color="#A950C4"/>
<stop offset="1" stop-color="#82269E"/>
</linearGradient>
<linearGradient id="paint4_linear_1222_19645" x1="53.0887" y1="5.72147" x2="4.43203" y2="38.1593" gradientUnits="userSpaceOnUse">
<stop stop-color="#F4F4F4"/>
<stop offset="1" stop-color="#D6D6D6"/>
</linearGradient>
</defs>
</svg>
