<svg width="722" height="458" viewBox="0 0 722 458" fill="none" xmlns="http://www.w3.org/2000/svg">
<g filter="url(#filter0_i_609_104)">
<rect width="722" height="458" rx="25" fill="url(#paint0_linear_609_104)"/>
</g>
<path d="M228.2 363.456C226.936 363.456 225.824 363.208 224.864 362.712C223.904 362.216 223.16 361.488 222.632 360.528C222.104 359.568 221.84 358.392 221.84 357V356.232H225.224V357.288C225.224 358.216 225.496 358.952 226.04 359.496C226.584 360.024 227.296 360.288 228.176 360.288C229.072 360.288 229.784 360.024 230.312 359.496C230.856 358.952 231.128 358.216 231.128 357.288V348H234.536V357C234.536 358.392 234.272 359.568 233.744 360.528C233.216 361.488 232.48 362.216 231.536 362.712C230.592 363.208 229.48 363.456 228.2 363.456ZM223.976 348.48V345.48H234.536V348.48H223.976ZM248.182 363.456C246.55 363.456 245.174 363.144 244.054 362.52C242.934 361.896 242.078 361.024 241.486 359.904C240.91 358.768 240.622 357.44 240.622 355.92V345.48H244.03V356.112C244.03 356.944 244.19 357.68 244.51 358.32C244.83 358.944 245.294 359.432 245.902 359.784C246.526 360.12 247.286 360.288 248.182 360.288C249.062 360.288 249.806 360.12 250.414 359.784C251.038 359.432 251.502 358.944 251.806 358.32C252.126 357.696 252.286 356.96 252.286 356.112V345.48H255.694V355.92C255.694 357.44 255.406 358.768 254.83 359.904C254.27 361.024 253.43 361.896 252.31 362.52C251.19 363.144 249.814 363.456 248.182 363.456ZM262.085 363V345.48H267.677L275.045 360.168H275.837L275.357 360.6V345.48H278.573V363H272.957L265.589 348.312H264.773L265.253 347.88V363H262.085ZM285.346 363V345.48H288.754V363H285.346ZM303.758 363.456C302.174 363.456 300.798 363.176 299.63 362.616C298.478 362.056 297.518 361.328 296.75 360.432C295.998 359.52 295.43 358.544 295.046 357.504C294.678 356.448 294.494 355.432 294.494 354.456V353.928C294.494 352.856 294.686 351.792 295.07 350.736C295.454 349.664 296.03 348.696 296.798 347.832C297.582 346.968 298.55 346.28 299.702 345.768C300.854 345.24 302.206 344.976 303.758 344.976C305.294 344.976 306.638 345.24 307.79 345.768C308.942 346.28 309.902 346.968 310.67 347.832C311.454 348.696 312.038 349.664 312.422 350.736C312.806 351.792 312.998 352.856 312.998 353.928V354.456C312.998 355.432 312.806 356.448 312.422 357.504C312.054 358.544 311.486 359.52 310.718 360.432C309.966 361.328 309.006 362.056 307.838 362.616C306.686 363.176 305.326 363.456 303.758 363.456ZM303.758 360.288C304.654 360.288 305.454 360.128 306.158 359.808C306.878 359.488 307.486 359.048 307.982 358.488C308.494 357.912 308.878 357.264 309.134 356.544C309.406 355.808 309.542 355.032 309.542 354.216C309.542 353.336 309.406 352.528 309.134 351.792C308.878 351.056 308.494 350.416 307.982 349.872C307.486 349.328 306.878 348.904 306.158 348.6C305.438 348.296 304.638 348.144 303.758 348.144C302.862 348.144 302.054 348.296 301.334 348.6C300.614 348.904 299.998 349.328 299.486 349.872C298.99 350.416 298.606 351.056 298.334 351.792C298.078 352.528 297.95 353.336 297.95 354.216C297.95 355.032 298.078 355.808 298.334 356.544C298.606 357.264 298.99 357.912 299.486 358.488C299.998 359.048 300.614 359.488 301.334 359.808C302.054 360.128 302.862 360.288 303.758 360.288ZM318.691 363V345.36H322.099V363H318.691ZM329.395 363L324.019 355.368H327.835L333.379 363H329.395ZM321.091 357.144V354.384H325.555C326.179 354.384 326.715 354.256 327.163 354C327.627 353.744 327.987 353.384 328.243 352.92C328.499 352.456 328.627 351.928 328.627 351.336C328.627 350.728 328.499 350.192 328.243 349.728C327.987 349.264 327.627 348.904 327.163 348.648C326.715 348.392 326.179 348.264 325.555 348.264H321.091V345.36H325.195C326.603 345.36 327.819 345.568 328.843 345.984C329.883 346.4 330.683 347.032 331.243 347.88C331.803 348.728 332.083 349.792 332.083 351.072V351.456C332.083 352.752 331.795 353.816 331.219 354.648C330.659 355.48 329.867 356.104 328.843 356.52C327.819 356.936 326.603 357.144 325.195 357.144H321.091ZM348.8 363.12V360.384H353.192C353.992 360.384 354.6 360.168 355.016 359.736C355.432 359.288 355.64 358.68 355.64 357.912C355.64 357.144 355.432 356.552 355.016 356.136C354.6 355.704 353.992 355.488 353.192 355.488H348.8V353.4H352.952C354.12 353.4 355.16 353.544 356.072 353.832C357 354.104 357.72 354.568 358.232 355.224C358.76 355.88 359.024 356.76 359.024 357.864V358.2C359.024 359.24 358.792 360.128 358.328 360.864C357.88 361.584 357.2 362.144 356.288 362.544C355.392 362.928 354.28 363.12 352.952 363.12H348.8ZM345.944 363.12V345.36H349.28V363.12H345.944ZM348.8 354.936V352.848H352.544C353.36 352.848 353.96 352.632 354.344 352.2C354.728 351.768 354.92 351.192 354.92 350.472C354.92 349.752 354.728 349.176 354.344 348.744C353.96 348.312 353.36 348.096 352.544 348.096H348.8V345.36H352.232C354.216 345.36 355.72 345.776 356.744 346.608C357.784 347.44 358.304 348.632 358.304 350.184V350.52C358.304 351.608 358.04 352.48 357.512 353.136C357 353.776 356.288 354.24 355.376 354.528C354.464 354.8 353.416 354.936 352.232 354.936H348.8ZM378.424 363.456C376.872 363.456 375.56 363.208 374.488 362.712C373.432 362.216 372.624 361.536 372.064 360.672C371.504 359.792 371.224 358.8 371.224 357.696H374.56C374.56 358.16 374.688 358.616 374.944 359.064C375.2 359.496 375.608 359.848 376.168 360.12C376.744 360.392 377.496 360.528 378.424 360.528C379.256 360.528 379.952 360.408 380.512 360.168C381.072 359.928 381.488 359.616 381.76 359.232C382.032 358.832 382.168 358.384 382.168 357.888C382.168 357.264 381.904 356.768 381.376 356.4C380.848 356.016 380.032 355.776 378.928 355.68L377.392 355.56C375.712 355.416 374.368 354.896 373.36 354C372.368 353.088 371.872 351.888 371.872 350.4C371.872 349.28 372.136 348.32 372.664 347.52C373.192 346.704 373.928 346.08 374.872 345.648C375.832 345.2 376.952 344.976 378.232 344.976C379.56 344.976 380.704 345.208 381.664 345.672C382.624 346.136 383.368 346.792 383.896 347.64C384.424 348.472 384.688 349.456 384.688 350.592H381.352C381.352 350.112 381.232 349.672 380.992 349.272C380.768 348.856 380.424 348.528 379.96 348.288C379.512 348.032 378.936 347.904 378.232 347.904C377.56 347.904 377 348.016 376.552 348.24C376.104 348.464 375.768 348.768 375.544 349.152C375.32 349.536 375.208 349.952 375.208 350.4C375.208 350.944 375.408 351.424 375.808 351.84C376.208 352.24 376.84 352.472 377.704 352.536L379.24 352.68C380.488 352.776 381.584 353.04 382.528 353.472C383.472 353.904 384.2 354.488 384.712 355.224C385.24 355.96 385.504 356.848 385.504 357.888C385.504 358.992 385.216 359.968 384.64 360.816C384.064 361.648 383.24 362.296 382.168 362.76C381.112 363.224 379.864 363.456 378.424 363.456ZM389.174 363L395.15 345.48H400.718L406.862 363H403.358L398.15 347.808L399.374 348.336H396.374L397.622 347.808L392.582 363H389.174ZM393.35 358.344L394.43 355.464H401.534L402.59 358.344H393.35ZM411.865 363V345.48H417.457L424.825 360.168H425.617L425.137 360.6V345.48H428.353V363H422.737L415.369 348.312H414.553L415.033 347.88V363H411.865ZM438.533 363V348H441.941V363H438.533ZM433.469 348.48V345.48H447.005V348.48H433.469ZM459.842 363.456C458.258 363.456 456.882 363.176 455.714 362.616C454.562 362.056 453.602 361.328 452.834 360.432C452.082 359.52 451.514 358.544 451.13 357.504C450.762 356.448 450.578 355.432 450.578 354.456V353.928C450.578 352.856 450.77 351.792 451.154 350.736C451.538 349.664 452.114 348.696 452.882 347.832C453.666 346.968 454.634 346.28 455.786 345.768C456.938 345.24 458.29 344.976 459.842 344.976C461.378 344.976 462.722 345.24 463.874 345.768C465.026 346.28 465.986 346.968 466.754 347.832C467.538 348.696 468.122 349.664 468.506 350.736C468.89 351.792 469.082 352.856 469.082 353.928V354.456C469.082 355.432 468.89 356.448 468.506 357.504C468.138 358.544 467.57 359.52 466.802 360.432C466.05 361.328 465.09 362.056 463.922 362.616C462.77 363.176 461.41 363.456 459.842 363.456ZM459.842 360.288C460.738 360.288 461.538 360.128 462.242 359.808C462.962 359.488 463.57 359.048 464.066 358.488C464.578 357.912 464.962 357.264 465.218 356.544C465.49 355.808 465.626 355.032 465.626 354.216C465.626 353.336 465.49 352.528 465.218 351.792C464.962 351.056 464.578 350.416 464.066 349.872C463.57 349.328 462.962 348.904 462.242 348.6C461.522 348.296 460.722 348.144 459.842 348.144C458.946 348.144 458.138 348.296 457.418 348.6C456.698 348.904 456.082 349.328 455.57 349.872C455.074 350.416 454.69 351.056 454.418 351.792C454.162 352.528 454.034 353.336 454.034 354.216C454.034 355.032 454.162 355.808 454.418 356.544C454.69 357.264 455.074 357.912 455.57 358.488C456.082 359.048 456.698 359.488 457.418 359.808C458.138 360.128 458.946 360.288 459.842 360.288ZM480.658 363.456C479.106 363.456 477.794 363.208 476.722 362.712C475.666 362.216 474.858 361.536 474.298 360.672C473.738 359.792 473.458 358.8 473.458 357.696H476.794C476.794 358.16 476.922 358.616 477.178 359.064C477.434 359.496 477.842 359.848 478.402 360.12C478.978 360.392 479.73 360.528 480.658 360.528C481.49 360.528 482.186 360.408 482.746 360.168C483.306 359.928 483.722 359.616 483.994 359.232C484.266 358.832 484.402 358.384 484.402 357.888C484.402 357.264 484.138 356.768 483.61 356.4C483.082 356.016 482.266 355.776 481.162 355.68L479.626 355.56C477.946 355.416 476.602 354.896 475.594 354C474.602 353.088 474.106 351.888 474.106 350.4C474.106 349.28 474.37 348.32 474.898 347.52C475.426 346.704 476.162 346.08 477.106 345.648C478.066 345.2 479.186 344.976 480.466 344.976C481.794 344.976 482.938 345.208 483.898 345.672C484.858 346.136 485.602 346.792 486.13 347.64C486.658 348.472 486.922 349.456 486.922 350.592H483.586C483.586 350.112 483.466 349.672 483.226 349.272C483.002 348.856 482.658 348.528 482.194 348.288C481.746 348.032 481.17 347.904 480.466 347.904C479.794 347.904 479.234 348.016 478.786 348.24C478.338 348.464 478.002 348.768 477.778 349.152C477.554 349.536 477.442 349.952 477.442 350.4C477.442 350.944 477.642 351.424 478.042 351.84C478.442 352.24 479.074 352.472 479.938 352.536L481.474 352.68C482.722 352.776 483.818 353.04 484.762 353.472C485.706 353.904 486.434 354.488 486.946 355.224C487.474 355.96 487.738 356.848 487.738 357.888C487.738 358.992 487.45 359.968 486.874 360.816C486.298 361.648 485.474 362.296 484.402 362.76C483.346 363.224 482.098 363.456 480.658 363.456Z" fill="#FEFBFF"/>
<path fill-rule="evenodd" clip-rule="evenodd" d="M94.6654 319.851C94.6654 319.852 94.6657 319.826 94.6766 319.771C94.6871 319.717 94.7054 319.646 94.7347 319.559C94.7935 319.385 94.8901 319.165 95.0334 318.917C95.32 318.421 95.7759 317.841 96.4342 317.301C97.733 316.235 99.8636 315.292 103.14 315.533C116.1 316.484 123.415 325.41 123.415 332.161V372.168C123.415 372.805 123.268 373.099 123.132 373.241C123.004 373.375 122.718 373.546 122.028 373.546H114.306C113.616 373.546 113.33 373.375 113.202 373.241C113.066 373.1 112.919 372.805 112.919 372.168V335.238C112.919 332.828 111.735 330.421 109.988 328.634C108.238 326.842 105.817 325.566 103.213 325.566H94.6654V319.851ZM103.213 327.566H94.6654V372.168C94.6654 373.162 94.4817 374.108 93.7928 374.763C93.1156 375.407 92.1813 375.546 91.2784 375.546H83.4154C82.6084 375.546 81.7233 375.389 81.0382 374.792C80.3257 374.171 80.0284 373.251 80.0284 372.168V334.819C80.0284 332.956 81.0921 330.668 82.6635 328.878C84.2482 327.074 86.5354 325.566 89.1714 325.566H92.6654V319.851C92.6654 319.284 92.9171 318.582 93.3016 317.917C93.7056 317.217 94.317 316.45 95.1659 315.754C96.8815 314.347 99.525 313.262 103.287 313.538C117.005 314.545 125.415 324.098 125.415 332.161V372.168C125.415 373.069 125.212 373.963 124.575 374.626C123.931 375.297 123.024 375.546 122.028 375.546H114.306C113.311 375.546 112.403 375.297 111.759 374.626C111.123 373.963 110.919 373.069 110.919 372.168V335.238C110.919 333.463 110.026 331.534 108.558 330.031C107.093 328.532 105.161 327.566 103.213 327.566ZM89.1714 327.566H92.6654V372.168C92.6654 372.991 92.498 373.235 92.4146 373.314C92.3196 373.404 92.0604 373.546 91.2784 373.546H83.4154C82.8182 373.546 82.5098 373.422 82.3524 373.285C82.2226 373.171 82.0284 372.902 82.0284 372.168V334.819C82.0284 333.604 82.7896 331.766 84.1664 330.198C85.5299 328.645 87.3142 327.566 89.1714 327.566ZM164.111 381.128C164.111 381.13 164.11 381.156 164.1 381.209C164.089 381.262 164.071 381.333 164.042 381.42C163.983 381.595 163.886 381.814 163.743 382.063C163.457 382.559 163.001 383.139 162.342 383.679C161.043 384.744 158.913 385.687 155.636 385.447C142.676 384.495 135.361 375.569 135.361 368.819V328.812C135.361 328.175 135.508 327.88 135.644 327.739C135.772 327.605 136.058 327.434 136.748 327.434H144.471C145.16 327.434 145.446 327.605 145.575 327.739C145.71 327.88 145.858 328.175 145.858 328.812V365.741C145.858 368.151 147.042 370.559 148.788 372.346C150.539 374.137 152.96 375.414 155.563 375.414H164.111V381.128V381.128ZM155.563 373.414H164.111V328.812C164.111 327.817 164.295 326.872 164.984 326.216C165.661 325.572 166.595 325.434 167.498 325.434H175.361C176.168 325.434 177.053 325.59 177.738 326.187C178.451 326.808 178.748 327.728 178.748 328.812V366.161C178.748 368.023 177.684 370.312 176.113 372.101C174.528 373.906 172.241 375.414 169.605 375.414H166.111V381.128C166.111 381.695 165.859 382.397 165.475 383.063C165.071 383.762 164.459 384.529 163.611 385.225C161.895 386.632 159.252 387.718 155.49 387.441C141.772 386.434 133.361 376.882 133.361 368.819V328.812C133.361 327.91 133.565 327.016 134.201 326.353C134.845 325.683 135.753 325.434 136.748 325.434H144.471C145.466 325.434 146.373 325.683 147.017 326.353C147.654 327.016 147.858 327.91 147.858 328.812V365.741C147.858 367.516 148.75 369.445 150.219 370.948C151.683 372.447 153.615 373.414 155.563 373.414ZM169.605 373.414H166.111V328.812C166.111 327.988 166.279 327.745 166.362 327.666C166.457 327.575 166.716 327.434 167.498 327.434H175.361C175.958 327.434 176.267 327.558 176.424 327.695C176.554 327.808 176.748 328.077 176.748 328.812V366.161C176.748 367.376 175.987 369.214 174.61 370.782C173.247 372.334 171.462 373.414 169.605 373.414Z" fill="#FEFBFF"/>
<circle cx="581.889" cy="86.4971" r="45.7505" fill="#E71924"/>
<circle cx="637.647" cy="86.4971" r="45.7505" fill="#F99F19"/>
<path fill-rule="evenodd" clip-rule="evenodd" d="M609.768 122.595C620.636 114.23 627.64 101.092 627.64 86.3172C627.64 71.5428 620.636 58.404 609.768 50.0396C598.9 58.404 591.897 71.5428 591.897 86.3172C591.897 101.092 598.9 114.23 609.768 122.595Z" fill="#F26520"/>
<rect x="80.4209" y="156.195" width="97.9347" height="69.3406" rx="6.07624" fill="url(#paint1_linear_609_104)" stroke="#211F21" stroke-width="2.14455"/>
<path d="M80.7783 178.713H110.087" stroke="#211F21" stroke-width="2" stroke-linecap="round"/>
<path d="M80.7783 200.873H109.445" stroke="#211F21" stroke-width="2" stroke-linecap="round"/>
<path d="M149.404 200.873H177.998" stroke="#211F21" stroke-width="2" stroke-linecap="round"/>
<path d="M148.975 179.428H177.998" stroke="#211F21" stroke-width="2" stroke-linecap="round"/>
<circle cx="129.388" cy="166.561" r="2.14455" fill="#211F21"/>
<path d="M231.053 205.824C236.325 192.59 236.926 185.119 231.053 171.645C230.43 170.215 231.053 169.024 231.768 168.786C232.483 168.547 233.589 168.786 234.27 170.215C241.188 184.73 240.767 192.87 234.627 207.387C233.912 208.817 232.575 208.998 231.768 208.46C230.824 207.831 230.608 206.941 231.053 205.824Z" fill="#FEFBFF"/>
<path d="M223.547 172.717C222.832 173.075 222.375 174.43 223.19 175.934C227.999 185.94 227.801 191.662 223.19 202.026C222.686 203.071 222.998 204.226 223.905 204.528C224.977 204.886 225.913 204.125 226.406 203.098C231.701 192.084 231.84 185.756 226.406 174.147C225.905 173.075 224.619 172.181 223.547 172.717Z" fill="#FEFBFF"/>
<path d="M216.399 177.364C215.326 177.721 215.136 178.908 215.684 180.223C218.53 187.063 218.979 190.898 215.684 197.737C215.041 198.929 214.83 200.193 216.041 200.596C217.252 201 218.126 200.363 218.543 199.524C222.766 191.149 221.82 186.454 218.543 178.079C218.263 177.364 217.471 177.006 216.399 177.364Z" fill="#FEFBFF"/>
<path d="M208.893 180.223C207.82 180.938 207.668 182.022 208.535 183.797C210.344 187.564 210.303 189.68 208.535 193.448C207.713 195.11 207.463 197.022 208.893 197.38C210.322 197.737 210.957 197.229 211.752 195.235C213.578 189.987 213.756 187.02 211.752 181.653C211.291 180.261 210.322 179.508 208.893 180.223Z" fill="#FEFBFF"/>
<path d="M145.115 170.849C142.372 161.508 137.251 156.91 129.03 156.91C119.023 156.91 116.194 164.53 110.087 178.355C113.998 187.507 114.039 192.437 110.087 200.873C116.494 219.254 121.24 224.915 129.388 224.821C140.111 224.821 143.163 215.733 149.046 200.873C145.952 192.497 145.622 187.875 148.5 179.5" stroke="#211F21" stroke-width="2" stroke-linecap="round"/>
<defs>
<filter id="filter0_i_609_104" x="0" y="0" width="725" height="461" filterUnits="userSpaceOnUse" color-interpolation-filters="sRGB">
<feFlood flood-opacity="0" result="BackgroundImageFix"/>
<feBlend mode="normal" in="SourceGraphic" in2="BackgroundImageFix" result="shape"/>
<feColorMatrix in="SourceAlpha" type="matrix" values="0 0 0 0 0 0 0 0 0 0 0 0 0 0 0 0 0 0 127 0" result="hardAlpha"/>
<feOffset dx="3" dy="3"/>
<feGaussianBlur stdDeviation="3"/>
<feComposite in2="hardAlpha" operator="arithmetic" k2="-1" k3="1"/>
<feColorMatrix type="matrix" values="0 0 0 0 1 0 0 0 0 1 0 0 0 0 1 0 0 0 0.25 0"/>
<feBlend mode="normal" in2="shape" result="effect1_innerShadow_609_104"/>
</filter>
<linearGradient id="paint0_linear_609_104" x1="610.09" y1="61.83" x2="354.096" y2="526.995" gradientUnits="userSpaceOnUse">
<stop stop-color="#A950C4"/>
<stop offset="1" stop-color="#82269E"/>
</linearGradient>
<linearGradient id="paint1_linear_609_104" x1="171" y1="165" x2="87" y2="221" gradientUnits="userSpaceOnUse">
<stop stop-color="#F4F4F4"/>
<stop offset="1" stop-color="#D6D6D6"/>
</linearGradient>
</defs>
</svg>
